<svg width="469" height="579" viewBox="0 0 469 579" fill="none" xmlns="http://www.w3.org/2000/svg">
<path fill-rule="evenodd" clip-rule="evenodd" d="M254.466 0.612457C243.538 2.58546 227.465 9.29345 217.842 15.8965C215.44 17.5445 207.115 24.8305 199.342 32.0875C191.569 39.3445 174.859 54.8865 162.209 66.6245C149.559 78.3625 131.109 95.6755 121.209 105.098C95.4022 129.661 71.5452 152.113 53.7092 168.623C26.5692 193.745 14.8322 205.758 10.2182 213.136C-1.69979 232.194 -3.31678 255.751 6.02222 274.246C12.3032 286.684 17.1622 291.998 38.2092 309.443C49.2092 318.561 62.3052 329.422 67.3102 333.579C72.3162 337.735 83.5662 346.986 92.3102 354.136C101.054 361.286 113.608 371.663 120.209 377.195C141.13 394.733 153.797 400.559 172.853 401.409C186.166 402.003 195.612 400.07 206.829 394.456C215.596 390.068 216.874 388.952 254.709 352.619C289.128 319.567 310.389 299.636 311.227 299.636C311.976 299.636 316.046 303.174 326.622 313.019C329.556 315.75 329.579 320.389 326.672 323.149L322.622 326.994C313.776 335.392 278.843 367.734 256.307 388.391C225.247 416.861 202.734 436.471 199.209 438.129C192.88 441.104 179.51 441.402 171.566 438.743C163.041 435.889 157.073 431.774 136.566 414.602C127.02 406.608 115.738 397.224 111.496 393.748C107.097 390.143 100.697 390.398 96.5981 394.34L93.9962 396.843C88.6132 402.021 80.3842 409.799 75.7092 414.127C41.4942 445.805 38.2792 450.182 38.2332 465.136C38.2122 472.057 38.6282 474.012 41.3202 479.636C45.5282 488.431 51.2012 493.962 78.2252 515.618C90.8662 525.748 108.455 539.966 117.31 547.213C140.213 565.957 151.019 571.99 170.402 576.858C177.525 578.647 181.886 579.054 193.209 578.987C210.198 578.887 222.238 576.146 236.209 569.199C246.266 564.198 252.665 559.292 274.901 539.535C293.49 523.02 300.1 517.195 337.209 484.63C353.159 470.633 377.684 449.043 391.709 436.651C405.734 424.26 424.191 408.004 432.725 400.525C441.259 393.047 450.669 384.275 453.638 381.032C462.659 371.176 468.726 355.717 468.692 342.676C468.655 328.69 464.108 315.745 455.285 304.503C450.846 298.847 429.456 280.421 357.345 220.135C307.25 178.254 309.921 180.35 301.209 176.084C290.751 170.963 282.874 169.192 270.709 169.228C261.968 169.253 258.98 169.697 252.874 171.876C239.091 176.796 237.167 178.349 193.709 219.606C184.084 228.743 171.484 240.642 165.709 246.048C159.934 251.453 154.52 256.61 153.677 257.506C152.835 258.403 148.012 263.14 142.961 268.034L133.777 276.932L128.493 272.836C125.587 270.583 121.699 267.47 119.854 265.918L116.498 263.097L144.896 237.116C160.515 222.827 192.582 193.617 216.157 172.205L259.021 133.275L264.29 132.838C270.217 132.346 278.366 133.982 283.934 136.779C288.201 138.923 296.348 145.67 327.12 172.542L340.229 183.901H357.12C361.569 179.624 374.506 167.436 385.869 156.815C397.233 146.195 407.613 135.847 408.936 133.821C417.413 120.843 416.56 105.217 406.693 92.7355C404.565 90.0425 390.769 76.6565 376.036 62.9875C361.304 49.3195 345.191 34.2835 340.229 29.5755C324.739 14.8735 315.051 8.73645 299.209 3.59045C290.031 0.608454 287.977 0.317462 274.209 0.0484619C265.959 -0.112538 257.075 0.141457 254.466 0.612457Z" fill="url(#paint0_linear_6_16)"/>
<defs>
<linearGradient id="paint0_linear_6_16" x1="-11.6161" y1="-11.615" x2="1.55661e-05" y2="608" gradientUnits="userSpaceOnUse">
<stop stop-color="#9945FF"/>
<stop offset="0.211538" stop-color="#7962E7"/>
<stop offset="0.754808" stop-color="#3DCFB4"/>
<stop offset="1" stop-color="#14F195"/>
</linearGradient>
</defs>
</svg>
