<?xml version="1.0" encoding="utf-8"?>
<!-- Generator: Adobe Illustrator 26.1.0, SVG Export Plug-In . SVG Version: 6.00 Build 0)  -->
<svg version="1.1" xmlns="http://www.w3.org/2000/svg" xmlns:xlink="http://www.w3.org/1999/xlink" x="0px" y="0px"
	 viewBox="200 -53 1187 1187" xml:space="preserve">
<style type="text/css">
	.st0{display:none;}
	.st1{fill:url(#SVGID_1_);}
	.st2{fill:#14F195;}
	.st3{fill:url(#SVGID_00000057148663640348306000000005997332918464608931_);}
	.st4{fill:#2E3192;}
	.st5{opacity:0.5;fill:#2E3192;}
	.st6{fill:url(#SVGID_00000044143826714704753020000004090250711259593366_);}
	.st7{fill:url(#SVGID_00000037680829041371443670000008407554390173270936_);}
	.st8{fill:url(#SVGID_00000177451087437566115630000008944479978682829702_);}
	.st9{fill:url(#SVGID_00000173848118583209405570000016810065925355767469_);}
</style>


<g id="Слой_2">
	<linearGradient id="SVGID_1_" gradientUnits="userSpaceOnUse" x1="1064.439" y1="205.7816" x2="1264.8438" y2="379.7955">
		<stop  offset="0.0608" style="stop-color:#078558"/>
		<stop  offset="0.2592" style="stop-color:#07885A"/>
		<stop  offset="0.428" style="stop-color:#099360"/>
		<stop  offset="0.586" style="stop-color:#0BA46A"/>
		<stop  offset="0.7373" style="stop-color:#0EBD78"/>
		<stop  offset="0.8827" style="stop-color:#12DD8A"/>
		<stop  offset="0.9605" style="stop-color:#14F195"/>
	</linearGradient>
	<path class="st1" d="M1262.76,253.01c-0.39,15.72-7.88,27.19-10.12,30.45c-5.02,7.3-10.29,11.65-11.63,12.73l-85.38,81.85
		c-6.58-6.35-49.59-47.67-83.6-72.94c-3.75-2.8-14.56-10.65-30.4-14.6c-7.66-1.92-19.62-4.73-32.11,0.72
		c-5.66,2.45-9.67,5.83-12.16,8.33c0.1-0.15,0.2-0.27,0.3-0.43c2.69-2.58,5.4-5.15,8.09-7.73c12.08-11.47,24.18-22.94,36.27-34.42
		c7.39-7.63,18.37-18.05,32.93-28.78c19.01-14.02,41.59-30.69,73.46-37.32c34.41-7.19,64.35,0.55,82.22,7.17
		c1.09,0.98,2.18,1.97,3.27,2.97c4.08,3.73,8.05,7.46,11.9,11.19C1248.81,215.25,1263.31,230.47,1262.76,253.01z"/>
	<path class="st2" d="M1230.63,198.06c-17.86-6.63-47.8-14.36-82.22-7.17c-31.86,6.63-54.45,23.3-73.46,37.32
		c-14.56,10.73-25.54,21.15-32.93,28.78c-12.09,11.48-24.19,22.95-36.27,34.42c-2.69,2.58-5.4,5.15-8.09,7.73
		c-49.51,47.33-99.04,94.6-148.63,141.85c-22.52,21.45-45.05,42.89-67.59,64.31c-0.48-0.39-0.97-0.76-1.46-1.15
		c-11.21-8.96-22.43-17.89-33.64-26.85c-44.1-33.28-65.65-82.71-54.26-125.09c4.85-18.04,14.8-31.66,24.08-41.18l0.14-0.14
		c1.44-1.41,2.91-2.84,4.35-4.25l0.04-0.04c62.51-61.05,125.01-122.12,187.52-183.17c9.5-10.42,53.21-56.15,117.39-55.91
		c46.02,0.19,90.18,30.02,106.15,41.97c2.87,2.14,4.82,3.69,5.73,4.41c0.54,0.42,1.4,1.15,2.63,2.23c0.26,0.21,0.52,0.46,0.81,0.7
		c1.3,1.13,2.89,2.56,4.84,4.3c0.56,0.5,1.14,1.01,1.74,1.56c1.01,0.91,2.11,1.89,3.29,2.94c1.48,1.34,3.11,2.81,4.86,4.39
		c1.31,1.2,2.7,2.44,4.18,3.76c0.08,0.09,0.16,0.17,0.26,0.24c0.73,0.67,1.49,1.36,2.27,2.06c0.19,0.17,0.38,0.34,0.58,0.51
		c0.48,0.44,0.99,0.89,1.48,1.34c1.07,0.97,2.16,1.97,3.31,3c1.21,1.09,2.47,2.23,3.75,3.4c0.75,0.7,1.53,1.4,2.33,2.11
		c1.31,1.2,2.68,2.43,4.09,3.7c1.11,1.01,2.26,2.04,3.41,3.1c0.89,0.81,1.77,1.61,2.67,2.41c6.86,6.24,13.75,12.49,20.62,18.72
		c3.45,3.17,6.93,6.31,10.41,9.46c0.9,0.83,1.82,1.67,2.74,2.49c0.44,0.4,0.88,0.8,1.31,1.2c0.85,0.77,1.71,1.56,2.56,2.33
		c0.41,0.37,0.84,0.76,1.23,1.11C1225.44,193.33,1228.04,195.7,1230.63,198.06z"/>
	
		<linearGradient id="SVGID_00000130620668272917016670000005257130455327992465_" gradientUnits="userSpaceOnUse" x1="658.7762" y1="423.1752" x2="927.8402" y2="646.9026">
		<stop  offset="0" style="stop-color:#14F195"/>
		<stop  offset="0.6608" style="stop-color:#435DCE"/>
		<stop  offset="1" style="stop-color:#5916EA"/>
	</linearGradient>
	<path style="fill:url(#SVGID_00000130620668272917016670000005257130455327992465_);" d="M1023.96,627.58l-72.24,69.26
		c0,0-30.57,30.24-71.42,29.38c-40.83-0.85-69.53-23.99-69.53-23.99l-172.67-136.9c0,0-38.02-25.17-47.85-65.82
		c-0.01-0.07-0.04-0.15-0.05-0.22c-1.01-4.61-1.71-9.46-2.04-14.56c-0.08-1.37-0.14-2.74-0.17-4.08c-0.02-0.36-0.03-0.74-0.02-1.13
		c-0.01-0.27,0-0.54,0-0.82c0.67-31.89,17.64-57.45,30.94-72.69c0.01-0.01,0.01-0.01,0.03-0.03c10.07-9.85,20.15-19.7,30.24-29.54
		c4.8-4.71,9.63-9.4,14.43-14.08c14.49-14.17,28.98-28.31,43.49-42.49c3.01-2.94,6.03-5.89,9.05-8.84
		c-9.27,9.52-19.23,23.14-24.08,41.18c-11.39,42.38,10.17,91.81,54.26,125.09c11.21,8.96,22.43,17.89,33.64,26.85
		c0.48,0.39,0.97,0.76,1.46,1.15c8.39,6.61,16.78,13.25,25.16,19.86l130.4,102.97c0.12,0.1,0.25,0.2,0.4,0.33
		c0.4,0.33,0.89,0.73,1.48,1.2c0.18,0.13,0.37,0.27,0.55,0.43c5.83,4.6,19.17,13.3,37.96,14.07c0.61,0.04,1.24,0.07,1.87,0.07
		c0.38,0.02,0.74,0.03,1.12,0.02c0.35-0.01,0.71,0,1.05-0.02c0.82,0,1.63-0.04,2.43-0.09c0.7-0.04,1.41-0.1,2.12-0.15
		c0.13-0.01,0.25-0.02,0.38-0.03c1.62-0.16,3.2-0.37,4.73-0.63c0.66-0.11,1.29-0.22,1.93-0.35c0.64-0.13,1.3-0.27,1.92-0.42
		c0.7-0.15,1.4-0.33,2.08-0.51c1.36-0.35,2.68-0.77,3.95-1.19l0.01-0.01c2.39-0.79,4.61-1.69,6.67-2.65c0.69-0.31,1.35-0.64,2-0.96
		c0.04-0.01,0.1-0.04,0.14-0.08c1.4-0.71,2.68-1.42,3.91-2.14c1.77-1.04,3.32-2.07,4.71-3.04c0.45-0.33,0.89-0.64,1.32-0.96
		c0.01-0.01,0.04-0.04,0.08-0.05c0.47-0.37,0.92-0.72,1.36-1.06c0.77-0.6,1.45-1.17,2.03-1.67
		C1023.48,627.98,1023.74,627.77,1023.96,627.58z"/>
	<path class="st4" d="M997.02,642.04c1.36-0.38,2.67-0.78,3.95-1.19C999.7,641.27,998.38,641.69,997.02,642.04z"/>
	<path class="st4" d="M1000.98,640.84c0.9-0.3,1.76-0.62,2.61-0.95c-0.09,0.03-0.18,0.07-0.28,0.11
		C1002.55,640.29,1001.78,640.56,1000.98,640.84z"/>
	<path class="st4" d="M1007.65,638.19c-1.28,0.6-2.65,1.16-4.06,1.7c0.36-0.13,0.72-0.27,1.06-0.41c0,0,0,0,0.01-0.01
		c0.69-0.28,1.35-0.56,2.01-0.86c0.48-0.19,0.93-0.4,1.38-0.61c0.55-0.25,1.07-0.51,1.59-0.76
		C1009,637.55,1008.34,637.88,1007.65,638.19z"/>
	<path class="st5" d="M232.68,412.4c-0.73,0.71-1.47,1.44-2.2,2.15C231.21,413.77,231.96,413.06,232.68,412.4z"/>
	
		<linearGradient id="SVGID_00000153688113216562556850000015167915657306757786_" gradientUnits="userSpaceOnUse" x1="812.2493" y1="505.9373" x2="1100.3374" y2="563.0746">
		<stop  offset="0" style="stop-color:#64A8F2"/>
		<stop  offset="0.1722" style="stop-color:#699FF3"/>
		<stop  offset="0.4592" style="stop-color:#7785F7"/>
		<stop  offset="0.8233" style="stop-color:#8D5CFC"/>
		<stop  offset="1" style="stop-color:#9945FF"/>
	</linearGradient>
	<path style="fill:url(#SVGID_00000153688113216562556850000015167915657306757786_);" d="M1100.21,554.47l-76.25,73.1
		c-0.23,0.19-0.48,0.41-0.75,0.64c-0.58,0.5-1.26,1.08-2.03,1.67c-0.44,0.34-0.89,0.69-1.36,1.06c-0.04,0.01-0.07,0.04-0.08,0.05
		c-0.43,0.33-0.86,0.64-1.32,0.96c-1.39,0.98-2.95,2-4.71,3.04c-1.23,0.71-2.51,1.43-3.91,2.14c-0.04,0.04-0.1,0.07-0.14,0.08
		c-0.52,0.25-1.04,0.51-1.59,0.76c-0.13,0.07-0.27,0.12-0.41,0.2c-0.31,0.13-0.63,0.28-0.97,0.41c-0.66,0.31-1.32,0.59-2.01,0.86
		c-0.27,0.12-0.56,0.24-0.86,0.33c-0.15,0.07-0.32,0.15-0.49,0.2c-0.76,0.29-1.53,0.57-2.33,0.84l-0.01,0.01
		c-1.28,0.41-2.59,0.81-3.95,1.19c-0.67,0.18-1.38,0.36-2.08,0.51c-0.62,0.15-1.28,0.29-1.92,0.42c-0.64,0.13-1.27,0.24-1.93,0.35
		c-1.53,0.26-3.11,0.46-4.73,0.63c-0.13,0.01-0.25,0.02-0.38,0.03c-0.71,0.05-1.43,0.11-2.12,0.15c-0.81,0.04-1.63,0.06-2.43,0.09
		c-0.73,0.01-1.47,0.01-2.16,0c-0.63,0-1.26-0.03-1.87-0.07c-18.51-0.89-32.13-9.68-37.96-14.07c-0.18-0.16-0.37-0.3-0.55-0.43
		c-0.59-0.47-1.08-0.87-1.48-1.2c-0.15-0.13-0.27-0.23-0.4-0.33l-130.4-102.97l91.67-87.89c1.96-1.69,7.49-6.19,15.81-9.34
		c0.42-0.16,0.86-0.33,1.29-0.48c0.45-0.16,0.9-0.32,1.34-0.46c1.36-0.43,2.78-0.83,4.27-1.17c0.34-0.08,0.66-0.14,1-0.22
		c2.16-0.46,4.43-0.77,6.82-0.93c0.54-0.03,1.1-0.07,1.66-0.09c0.52-0.03,1.03-0.03,1.54-0.02c0.52,0,1-0.01,1.51,0
		c1.99,0.06,3.9,0.22,5.74,0.48c1.13,0.15,2.18,0.34,3.24,0.56c0.03,0,0.03,0,0.03,0c1.06,0.22,2.06,0.46,3.04,0.72
		c0.46,0.14,0.89,0.27,1.33,0.39c0.67,0.21,1.33,0.42,1.97,0.63c0.1,0.04,0.21,0.07,0.29,0.1c0.37,0.13,0.73,0.25,1.09,0.4
		c1.2,0.46,2.34,0.93,3.43,1.41c0.48,0.22,0.95,0.45,1.41,0.67c0.93,0.45,1.78,0.92,2.58,1.35c0.68,0.39,1.31,0.77,1.89,1.11
		c0.01,0.01,0.03,0.03,0.06,0.03c0.4,0.25,0.77,0.49,1.12,0.71c0.33,0.23,0.65,0.45,0.95,0.65c0.3,0.2,0.56,0.39,0.81,0.56
		L1100.21,554.47z"/>
	<path class="st4" d="M997.02,642.04c1.36-0.38,2.67-0.78,3.95-1.19C999.7,641.27,998.38,641.69,997.02,642.04z"/>
	<path class="st4" d="M1007.65,638.19c-1.28,0.6-2.65,1.16-4.06,1.7c-0.09,0.03-0.18,0.07-0.28,0.11c-0.76,0.29-1.53,0.57-2.33,0.84
		c0.86-0.28,1.67-0.6,2.49-0.91c0.12-0.05,0.23-0.09,0.34-0.14l0.84-0.32c0,0,0,0,0.01-0.01c0.69-0.28,1.35-0.56,2.01-0.86
		c0.48-0.19,0.93-0.4,1.38-0.61c0.55-0.25,1.07-0.51,1.59-0.76C1009,637.55,1008.34,637.88,1007.65,638.19z"/>
	<path class="st4" d="M933.51,424.56c-0.5-0.01-0.99-0.01-1.51,0c0.21-0.01,0.45-0.02,0.67-0.01L933.51,424.56z"/>
	<path class="st4" d="M939.25,425.05c1.13,0.15,2.18,0.34,3.24,0.56C941.44,425.37,940.37,425.2,939.25,425.05z"/>
	<path class="st4" d="M896.87,438.58c-0.75,0.72-1.48,1.45-2.24,2.17C895.09,440.29,895.83,439.53,896.87,438.58z"/>
	
		<linearGradient id="SVGID_00000023962615034673169160000007794002302983207597_" gradientUnits="userSpaceOnUse" x1="940.5483" y1="383.949" x2="1268.1768" y2="705.9247">
		<stop  offset="0" style="stop-color:#46287B"/>
		<stop  offset="1" style="stop-color:#BB4BE1"/>
	</linearGradient>
	<path style="fill:url(#SVGID_00000023962615034673169160000007794002302983207597_);" d="M1356.25,618.89
		c1.01,42.06-31.39,73.75-44.28,85.12c-43.52,40.17-87.05,80.34-130.56,120.52c-1.25,1.15-2.49,2.31-3.74,3.45
		c0.8-0.93,3.59-4.15,4.33-5.03c9.27-10.72,11.97-13.75,15.45-18.64c4.8-6.74,28.63-40.16,30.51-78.84
		c3-61.62-51.25-105.04-57.21-109.66c-12.51-10.91-25.02-21.8-37.54-32.71c-56.92-49.58-113.83-99.2-170.73-148.77
		c-0.25-0.17-0.51-0.36-0.81-0.56c-0.27-0.2-0.6-0.43-0.95-0.65c-0.34-0.22-0.72-0.46-1.12-0.71c-0.03,0-0.04-0.01-0.06-0.03
		c-0.56-0.36-1.2-0.74-1.89-1.11c-0.8-0.44-1.66-0.9-2.58-1.35c-0.44-0.23-0.93-0.45-1.41-0.67c-1.09-0.48-2.23-0.95-3.43-1.41
		c-0.36-0.15-0.72-0.27-1.09-0.4c-0.08-0.03-0.19-0.06-0.29-0.1c-0.64-0.21-1.3-0.42-1.97-0.63c-0.44-0.12-0.87-0.26-1.33-0.39
		c-0.97-0.27-2-0.52-3.04-0.72c0,0,0,0-0.03,0c-1.04-0.23-2.11-0.41-3.24-0.56c-1.84-0.26-3.75-0.43-5.74-0.48l-0.84-0.02
		c-0.22,0-0.46,0-0.67,0.01c-0.5-0.01-1.02-0.01-1.54,0.02c-0.56,0.02-1.12,0.06-1.66,0.09c-2.39,0.16-4.66,0.47-6.82,0.93
		c-0.34,0.08-0.66,0.14-1,0.22c-1.49,0.33-2.9,0.73-4.27,1.17c-0.44,0.14-0.89,0.3-1.34,0.46c-0.44,0.14-0.87,0.32-1.29,0.48
		c-8.33,3.15-13.85,7.65-15.81,9.34l-0.84,0.81c-0.2,0.16-0.37,0.33-0.53,0.48c23.65-22.98,47.32-45.97,70.97-68.94
		c5.55-4.99,29.59-25.47,66.1-25.24c32.85,0.19,55.03,17.03,61.37,22.21c71.54,57.02,143.09,114.03,214.63,171.06
		C1352.26,571.34,1355.7,596.45,1356.25,618.89z"/>
	<path class="st4" d="M932.67,424.55l0.84,0.02c-0.5-0.01-0.99-0.01-1.51,0C932.21,424.55,932.45,424.54,932.67,424.55z"/>
	<path class="st4" d="M939.25,425.05c1.13,0.15,2.18,0.34,3.24,0.56C941.44,425.37,940.37,425.2,939.25,425.05z"/>
	
		<linearGradient id="SVGID_00000152245255820788238230000002224768567734385084_" gradientUnits="userSpaceOnUse" x1="723.7106" y1="761.1386" x2="837.9072" y2="853.1677">
		<stop  offset="0.0427" style="stop-color:#9945FF"/>
		<stop  offset="0.2964" style="stop-color:#7D3BD2"/>
		<stop  offset="0.5994" style="stop-color:#5F31A3"/>
		<stop  offset="0.8321" style="stop-color:#4D2A86"/>
		<stop  offset="0.9647" style="stop-color:#46287B"/>
	</linearGradient>
	<path style="fill:url(#SVGID_00000152245255820788238230000002224768567734385084_);" d="M929.53,778.53
		c-32.63,31.31-65.27,62.63-97.9,93.94c-11.24,7.77-37.42,23.58-74.18,25.5c-26.55,1.39-47.61-5.04-59.65-9.78
		c24.34,19.63,48.7,39.25,73.06,58.87l-0.01,0.01c-28.2-22.57-56.41-45.12-84.63-67.68c-2.55-2.09-25.36-21.34-23.65-51.73
		c1.14-20.37,12.59-33.86,16.4-37.98c29.34-28.16,58.69-56.32,88.03-84.48c28.77,23.45,57.53,46.89,86.3,70.34
		c6.12,4.99,18.05,13.15,34.62,15.36c5.51,0.73,13.97,1.77,24.05-1.66C920.37,786.41,926.18,781.74,929.53,778.53z"/>
	
		<linearGradient id="SVGID_00000065069414311751951140000018142298156316546456_" gradientUnits="userSpaceOnUse" x1="849.1078" y1="939.3493" x2="1178.8409" y2="656.9544">
		<stop  offset="0.0557" style="stop-color:#7D55C7"/>
		<stop  offset="0.7036" style="stop-color:#A84DDE"/>
		<stop  offset="0.907" style="stop-color:#B64AE6"/>
	</linearGradient>
	<path style="fill:url(#SVGID_00000065069414311751951140000018142298156316546456_);" d="M1227.96,725.48
		c-1.88,38.67-25.7,72.1-30.51,78.84c-3.48,4.9-6.18,7.92-15.45,18.64c-0.74,0.88-3.53,4.1-4.33,5.03
		c-52.24,48.3-104.46,96.62-156.7,144.93c-10.94,9.06-49.62,38.88-107.26,39.55c-52.53,0.61-89.34-23.36-101.48-32.06
		c-13.79-11.11-27.6-22.23-41.38-33.35c-24.36-19.62-48.72-39.24-73.06-58.87c12.04,4.75,33.11,11.18,59.65,9.78
		c36.76-1.92,62.94-17.72,74.18-25.5c32.63-31.31,65.27-62.63,97.9-93.94l0.48-0.46c67.73-64.99,135.47-129.97,203.2-194.96
		c12.51,10.91,25.02,21.8,37.54,32.71C1176.71,620.44,1230.96,663.85,1227.96,725.48z"/>
</g>
</svg>
