<svg xmlns="http://www.w3.org/2000/svg" width="1536" height="1024"><path fill="#b63af4" d="M833 227c1.37.44 2.75.88 4.12 1.31 15.69 6.24 27.76 17.31 39.38 29.19 2.78 2.78 5.69 5.34 8.67 7.89 1.86 1.64 3.6 3.34 5.33 5.11 2.26 2.29 4.56 4.46 7 6.56 4.67 4.03 9.15 8.24 13.64 12.46 3.14 2.95 6.29 5.88 9.47 8.77 5.82 5.29 11.49 10.54 16.39 16.71.47.57.94 1.14 1.42 1.73 5.83 7.5 6.9 15.01 7.27 24.35-1.96 11.1-8.62 18.7-16.57 26.23-.85.84-1.71 1.68-2.6 2.55-4.47 4.35-9.04 8.56-13.78 12.61-1.83 1.61-3.54 3.29-5.24 5.03-3.04 3.09-6.25 5.92-9.53 8.75-1.9 1.69-3.69 3.44-5.47 5.25-2.51 2.54-5.06 5.02-7.69 7.44-.63.58-1.26 1.17-1.92 1.77C881 412 881 412 877 412c-2.19-1.65-2.19-1.65-4.56-3.94-3.49-3.27-7.01-6.39-10.75-9.37-4.22-3.41-8.23-6.98-12.19-10.69-4.75-4.44-9.6-8.65-14.68-12.71a185 185 0 0 1-6.04-5.11c-10.43-9.17-20.77-15.85-35.27-15.24-8.4 1.23-14.21 9.21-19.68 15.11-2.26 2.4-4.66 4.59-7.14 6.76-3.59 3.2-7.15 6.44-10.69 9.69-6.1 5.6-12.26 11.14-18.42 16.67-4.53 4.07-9.04 8.15-13.52 12.27-15.6 14.32-15.6 14.32-20.81 18.81-4.7 4.08-9.21 8.37-13.76 12.63-3.75 3.51-7.54 6.96-11.43 10.31-10.25 9.01-20.1 18.49-30.06 27.81 2.57 3.39 5.13 6.15 8.5 8.75l2.28 1.8c2.23 1.46 3.6 2.13 6.22 2.45 2.35-1.98 4.36-3.89 6.44-6.12.28-.3.28-.3 1.69-1.77 1.12-1.16 2.22-2.32 3.33-3.48 3.95-4.17 8.09-8.09 12.35-11.94 4.23-3.85 8.32-7.79 12.33-11.87 1.87-1.83 3.81-3.55 5.8-5.26 2.99-2.57 5.79-5.25 8.56-8.06 2.63-2.67 5.28-5.24 8.12-7.69 3.89-3.34 7.64-6.81 11.38-10.31.64-.6 1.28-1.19 1.93-1.81q5.16-4.83 10.32-9.69c.7-.65 1.4-1.31 2.12-1.99 1.33-1.26 2.67-2.51 4-3.77 1.87-1.76 3.75-3.5 5.63-5.24.65-.61 1.3-1.22 1.97-1.84 4.39-4.02 8.72-6.93 14.09-9.47.67-.34 1.34-.67 2.03-1.01 13.76-6.7 31.07-7.02 45.55-2.06 10.53 4.33 19.35 8.67 27.59 16.74 3.1 2.95 6.37 5.54 9.77 8.14 5.39 4.15 10.44 8.54 15.43 13.17 3.19 2.89 6.53 5.55 9.91 8.21 3.08 2.46 6.09 5 9.1 7.56 3.99 3.39 8 6.75 12.06 10.06 4.61 3.75 9.14 7.57 13.67 11.42 3.39 2.88 6.81 5.71 10.27 8.52 6.01 4.89 11.88 9.95 17.76 15.01a5994 5994 0 0 0 10.6 9.1q4.38 3.765 8.79 7.47c.59.49 1.17.98 1.77 1.49 1.09.92 2.19 1.83 3.29 2.75 3.29 2.76 6.35 5.66 9.35 8.74.59.59 1.17 1.18 1.77 1.78 11.09 11.9 16.05 26.71 15.57 42.87-1.38 13.46-6.27 27.66-16.66 36.79-1.68 1.56-1.68 1.56-3.57 3.99-2.18 2.66-4.41 4.58-7.11 6.69-4.2 3.37-8.24 6.85-12.19 10.5-.51.48-1.02.95-1.55 1.44-.49.46-.99.92-1.5 1.39-4.05 3.74-8.19 7.34-12.36 10.93-1.89 1.62-3.77 3.25-5.65 4.87-.65.56-1.3 1.12-1.97 1.7-4.08 3.53-8.08 7.13-12.03 10.8-3.62 3.35-7.28 6.54-11.13 9.63-5.73 4.61-11.05 9.6-16.42 14.63-3.65 3.42-7.4 6.73-11.2 9.99-2.44 2.1-4.88 4.21-7.31 6.31-.65.57-1.3 1.13-1.98 1.71-4.83 4.19-9.58 8.47-14.31 12.79-4.89 4.46-9.9 8.78-14.98 13.04-5.47 4.59-10.81 9.3-16.04 14.17a188 188 0 0 1-9.82 8.42c-5.41 4.36-10.48 9.03-15.56 13.77-2.96 2.77-5.99 5.45-9.06 8.09-1.42 1.24-2.81 2.52-4.19 3.81-6.49 6.04-13.33 11.07-20.75 15.89-.75.5-1.5.99-2.27 1.5-13.43 8.2-30.45 10.9-45.92 10.81-.54 0-.54 0-3.32-.01-25.59-.39-47.21-9.71-66.26-26.49-3.23-2.84-6.58-5.49-9.98-8.12-5.33-4.14-10.56-8.39-15.75-12.69-5.14-4.25-10.3-8.46-15.56-12.56-32.67-25.51-32.67-25.51-39.94-36.44-.43-.64-.87-1.28-1.32-1.93-4.48-8.01-4.19-19.42-1.87-28.11 3.03-6.62 8.15-11.81 13.19-16.96.69-.71 1.37-1.43 2.08-2.16 3.79-3.87 7.75-7.46 11.85-10.99 2.28-2.04 4.42-4.17 6.57-6.35 3.38-3.43 6.88-6.62 10.54-9.75 2.07-1.85 4.01-3.77 5.96-5.75 10.32-10.44 10.32-10.44 15-12 2.1 1.38 2.1 1.38 4.62 3.56.98.83 1.95 1.65 2.95 2.5.54.47 1.08.93 1.64 1.41 3.41 2.91 6.89 5.75 10.35 8.59l2.23 1.84c3.86 3.18 7.73 6.32 11.65 9.41 3.28 2.59 6.33 5.33 9.37 8.19 5.56 5.05 11.62 8.88 18.19 12.5.82.46 1.64.92 2.49 1.39 8.1 3.88 19.46 4.36 28.01 1.42 7.7-3.99 13.79-8.63 20-14.69 1.43-1.37 2.85-2.74 4.28-4.11.7-.67 1.4-1.34 2.12-2.04 2.68-2.51 5.44-4.92 8.22-7.33 2.81-2.45 5.53-4.98 8.26-7.52 3.8-3.53 7.62-7.04 11.5-10.5 4.88-4.37 9.66-8.84 14.44-13.32 5.86-5.48 11.76-10.89 17.68-16.3 1.5-1.37 3-2.75 4.49-4.12 1-.92 2-1.83 3-2.75l7.65-7.02c4.35-4 8.7-8 13.17-11.86 3.11-2.7 6.01-5.54 8.89-8.48 2.58-2.54 5.33-4.86 8.1-7.19C860 543 860 543 862 540c-2.04-1.9-4.08-3.79-6.12-5.69-.57-.53-1.14-1.06-1.73-1.6-10.39-9.63-10.39-9.63-14.03-10.02-.7.1-1.4.2-2.12.31-.2.54-.41 1.09-.62 1.64-1.92 3.29-4.63 5.55-7.44 8.05-1.19 1.07-2.37 2.14-3.55 3.21-.58.52-1.16 1.05-1.76 1.59-2.21 2.05-4.33 4.17-6.44 6.32-2.59 2.62-5.2 5.12-8 7.5-3.58 3.07-6.88 6.34-10.19 9.69-3.2 3.24-6.39 6.43-9.88 9.38-3.92 3.33-7.5 6.96-11.12 10.62-4.19 4.23-8.4 8.33-12.96 12.17-2.2 1.97-4.25 4.06-6.31 6.18-13.65 14.02-30.22 24.34-50.32 25.13-19.48.21-37.73-6.62-52.41-19.48l-3.3-2.82c-1.83-1.57-3.66-3.14-5.48-4.71-4.06-3.5-8.19-6.89-12.4-10.22-3.78-3.02-7.52-6.1-11.26-9.19-.37-.3-.37-.3-2.24-1.85a1368 1368 0 0 1-4.34-3.58c-4.32-3.56-8.65-7.09-12.98-10.63-.42-.34-.42-.34-2.55-2.09-4.06-3.33-8.12-6.65-12.21-9.95-7.19-5.8-14.3-11.67-21.29-17.71a367 367 0 0 0-10.76-8.94C545.45 512.9 532.95 499.08 531 482c-.13-3.25-.14-6.5-.12-9.75v-2.69c.04-5.91.34-11.69 1.12-17.56h2c-.05-.71-.11-1.41-.16-2.14.19-3.43 1.17-5.55 2.72-8.61.48-.96.95-1.93 1.44-2.92 5.14-8.56 11.86-15.48 18.94-22.45.85-.86 1.71-1.71 2.59-2.59 4.39-4.36 8.85-8.57 13.53-12.6 3.47-3.03 6.79-6.21 10.13-9.38 5.26-4.97 10.54-9.92 15.87-14.81 4.15-3.8 8.17-7.7 12.12-11.71 2.5-2.46 5.16-4.72 7.82-7.01 2.08-1.85 4.04-3.79 6-5.78 2.54-2.58 5.12-5.02 7.88-7.38 3.19-2.74 6.16-5.63 9.12-8.62 2.86-2.89 5.72-5.68 8.81-8.31 3.76-3.21 7.22-6.68 10.69-10.19 3.96-4 7.95-7.87 12.24-11.53 5.9-5.15 11.55-10.61 17.26-15.97 2.71-2.54 5.42-5.08 8.12-7.62.34-.32.34-.32 2.04-1.91 4.63-4.35 9.29-8.67 13.97-12.98 3.55-3.27 7.08-6.55 10.61-9.85 2.52-2.36 5.04-4.71 7.57-7.06 1.5-1.4 2.99-2.81 4.48-4.22 5.64-5.26 11.52-9.51 18.21-13.36.78-.45 1.55-.9 2.36-1.37 5.06-2.73 10.3-4.64 15.76-6.38.33-.11.33-.11 2-.64 17.97-5.47 39.6-4.77 56.88 2.39"/><path fill="#4cbeb7" d="M833 227c1.37.44 2.75.88 4.12 1.31 15.69 6.24 27.76 17.31 39.38 29.19 2.78 2.78 5.69 5.34 8.67 7.89 1.86 1.64 3.6 3.34 5.33 5.11 2.26 2.29 4.56 4.46 7 6.56 4.67 4.03 9.15 8.24 13.64 12.46 3.14 2.95 6.29 5.88 9.47 8.77 5.82 5.29 11.49 10.54 16.39 16.71.47.57.94 1.14 1.42 1.73 5.83 7.5 6.9 15.01 7.27 24.35-1.96 11.1-8.62 18.7-16.57 26.23-.85.84-1.71 1.68-2.6 2.55-4.47 4.35-9.04 8.56-13.78 12.61-1.83 1.61-3.54 3.29-5.24 5.03-3.04 3.09-6.25 5.92-9.53 8.75-1.9 1.69-3.69 3.44-5.47 5.25-2.51 2.54-5.06 5.02-7.69 7.44-.63.58-1.26 1.17-1.92 1.77C881 412 881 412 877 412c-2.19-1.65-2.19-1.65-4.56-3.94-3.49-3.27-7.01-6.39-10.75-9.37-4.22-3.41-8.23-6.98-12.19-10.69-4.75-4.44-9.6-8.65-14.68-12.71a185 185 0 0 1-6.04-5.11c-10.43-9.17-20.77-15.85-35.27-15.24-8.4 1.23-14.21 9.21-19.68 15.11-2.26 2.4-4.66 4.59-7.14 6.76-3.59 3.2-7.15 6.44-10.69 9.69-6.1 5.6-12.26 11.14-18.42 16.67-4.53 4.07-9.04 8.15-13.52 12.27-15.6 14.32-15.6 14.32-20.81 18.81-4.7 4.08-9.21 8.37-13.76 12.63-3.75 3.51-7.54 6.96-11.43 10.31-10.25 9.01-20.1 18.49-30.06 27.81 3.22 4.29 6.65 7.14 10.98 10.25 2.02 1.75 2.02 1.75 3.04 3.84 1.27 2.48 2.48 2.78 4.98 3.91 1.59 1.21 3.15 2.47 4.69 3.75.96.8 1.93 1.61 2.93 2.43.53.45 1.07.9 1.62 1.36 1.92 1.59 3.84 3.17 5.77 4.75 7.46 6.11 14.87 12.28 22.17 18.59 4 3.45 8.09 6.77 12.23 10.04 3.8 3.06 7.51 6.23 11.21 9.4 2.4 2.05 4.75 3.93 7.38 5.68v2c.37.13.37.13 2.21.79 2.85 1.24 4.91 2.69 7.35 4.59 9.17 6.49 19.25 9.21 30.44 7.62 3.55-1.11 6.91-2.41 10.32-3.91C788 569 788 569 791 569c-3 3.03-6 6.04-9 9.06l-2.54 2.57c-4.43 4.44-8.91 8.71-13.67 12.79-2.68 2.37-5.13 4.94-7.6 7.52-13.78 13.99-31.07 23.34-51.07 23.56-18.62-.26-36.11-7.23-50.12-19.5l-3.3-2.82c-1.83-1.57-3.66-3.14-5.48-4.71-4.06-3.5-8.19-6.89-12.4-10.22-3.78-3.02-7.52-6.1-11.26-9.19-.37-.3-.37-.3-2.24-1.85a1368 1368 0 0 1-4.34-3.58c-4.32-3.56-8.65-7.09-12.98-10.63-.42-.34-.42-.34-2.55-2.09-4.06-3.33-8.12-6.65-12.21-9.95-7.19-5.8-14.3-11.67-21.29-17.71a367 367 0 0 0-10.76-8.94C545.45 512.9 532.95 499.08 531 482c-.13-3.25-.14-6.5-.12-9.75v-2.69c.04-5.91.34-11.69 1.12-17.56h2c-.05-.71-.11-1.41-.16-2.14.19-3.43 1.17-5.55 2.72-8.61.48-.96.95-1.93 1.44-2.92 5.14-8.56 11.86-15.48 18.94-22.45.85-.86 1.71-1.71 2.59-2.59 4.39-4.36 8.85-8.57 13.53-12.6 3.47-3.03 6.79-6.21 10.13-9.38 5.26-4.97 10.54-9.92 15.87-14.81 4.15-3.8 8.17-7.7 12.12-11.71 2.5-2.46 5.16-4.72 7.82-7.01 2.08-1.85 4.04-3.79 6-5.78 2.54-2.58 5.12-5.02 7.88-7.38 3.19-2.74 6.16-5.63 9.12-8.62 2.86-2.89 5.72-5.68 8.81-8.31 3.76-3.21 7.22-6.68 10.69-10.19 3.96-4 7.95-7.87 12.24-11.53 5.9-5.15 11.55-10.61 17.26-15.97 2.71-2.54 5.42-5.08 8.12-7.62.34-.32.34-.32 2.04-1.91 4.63-4.35 9.29-8.67 13.97-12.98 3.55-3.27 7.08-6.55 10.61-9.85 2.52-2.36 5.04-4.71 7.57-7.06 1.5-1.4 2.99-2.81 4.48-4.22 5.64-5.26 11.52-9.51 18.21-13.36.78-.45 1.55-.9 2.36-1.37 5.06-2.73 10.3-4.64 15.76-6.38.33-.11.33-.11 2-.64 17.97-5.47 39.6-4.77 56.88 2.39"/><path fill="#9998f4" d="M753.063 442.063c6.91 3.99 12.46 9.73 18.13 15.27 2.98 2.9 6.04 5.59 9.31 8.17 6.9 5.5 13.2 11.64 19.6 17.7 7.33 6.93 14.82 13.63 22.52 20.15 6.65 5.67 13.01 11.65 19.38 17.65-.62.24-1.24.49-1.88.75-2.12 1.25-2.12 1.25-2.99 3.02-1.69 3.33-4.44 5.48-7.19 7.91-1.19 1.07-2.37 2.14-3.55 3.22-.58.52-1.16 1.05-1.76 1.59-2.21 2.04-4.33 4.17-6.45 6.32-3.19 3.24-6.5 6.23-9.96 9.17-1.76 1.6-3.38 3.21-5 4.94-6.23 6.6-11.51 10.98-20.22 14.08-.67.31-1.33.63-2.01.95-7.79 3.59-16.77 2.97-24.87.67-9.87-3.66-18.83-10.11-26.12-17.62-1.65-1.4-3.32-2.78-5-4.13-4.14-3.35-8.25-6.74-12.32-10.19-.27-.22-.27-.22-1.64-1.38-2.84-2.42-5.67-4.84-8.49-7.28-6.33-5.48-12.73-10.8-19.35-15.93-4.82-3.75-9.49-7.66-14.12-11.65-3.89-3.34-3.89-3.34-6.08-4.44v-2c1.5-1.48 1.5-1.48 3.56-3.19 4.02-3.42 7.74-7.04 11.44-10.81 3.5-3.56 7.11-6.97 10.81-10.32 4.23-3.84 8.32-7.78 12.33-11.86 2.5-2.45 5.14-4.7 7.8-6.97 2.27-2.05 4.33-4.25 6.43-6.48 10.23-10.14 24.19-13.13 37.69-7.31"/><path fill="#6f25c9" d="M633 611c3.7 1.29 6.11 2.74 8.94 5.44 3.8 3.49 7.73 6.71 11.81 9.87 8.42 6.54 16.57 13.37 24.5 20.5 6.25 5.49 13.19 9.77 20.75 13.19 1.07.53 2.14 1.05 3.25 1.59 3.84 1.63 7.5 1.83 11.63 1.72.69-.01 1.39-.01 2.11-.02 5.25-.13 9.97-.85 15.01-2.29-4.28 5.18-8.81 9.82-13.75 14.38-.71.65-1.42 1.31-2.15 1.99a840 840 0 0 1-13.62 12.39c-2.44 2.2-4.84 4.43-7.24 6.68-14.31 13.33-28.76 25.13-48.24 29.56-.96.22-1.93.45-2.92.68-16.99 3.23-37.95 3.72-53.08-5.96-1.69-1.21-3.35-2.46-5-3.72-.83-.41-1.65-.83-2.5-1.25-4.08-2.86-6.72-6.66-9.5-10.75-.44-.65-.88-1.29-1.34-1.96-4.45-8.01-4.17-19.4-1.85-28.08 3.03-6.62 8.15-11.81 13.19-16.96.34-.36.34-.36 2.08-2.16 3.79-3.87 7.75-7.46 11.85-10.99 2.28-2.04 4.42-4.17 6.57-6.35 3.38-3.43 6.88-6.62 10.54-9.75 2.77-2.47 5.33-5.11 7.93-7.75 2.72-2.68 5.57-5.17 8.46-7.65.88-.76 1.75-1.53 2.57-2.35"/><path fill="#1d9f80" d="M912 300c.56.22.56.22 3.37 1.35 13.49 5.56 21.36 10.5 27.87 23.79 1.67 4.09 2.03 7.95 2.2 12.36.06 1.12.12 2.25.18 3.41-.86 10.96-8.95 19.25-16.5 26.4-.85.84-1.71 1.68-2.6 2.55-4.47 4.35-9.04 8.56-13.78 12.61-1.83 1.61-3.54 3.29-5.24 5.03-3.04 3.09-6.25 5.92-9.53 8.75-1.9 1.69-3.69 3.44-5.47 5.25-2.51 2.54-5.06 5.02-7.69 7.44-.63.58-1.26 1.17-1.92 1.77C881 412 881 412 877 412c-2.19-1.65-2.19-1.65-4.56-3.94-3.49-3.27-7.01-6.39-10.75-9.37-4.22-3.41-8.23-6.98-12.19-10.69-4.75-4.44-9.6-8.65-14.68-12.71a185 185 0 0 1-6.04-5.11C817.43 360.2 807.19 355.16 792 354c1.4-1.64 2.8-3.28 4.21-4.91 1.23-1.44 2.46-2.88 3.68-4.34.61-.72 1.23-1.44 1.86-2.19.57-.68 1.14-1.36 1.73-2.06C805 339 805 339 807 339l1-3c1.5-1.51 1.5-1.51 3.44-3.12 3.17-2.69 6.26-5.43 9.31-8.26C842.55 305 842.55 305 852 305v-2c19.48-7.37 40.11-11.43 60-3"/><path fill="#6343ce" d="m789 568 2 1c-3 3.03-6 6.04-9 9.06l-2.54 2.57c-6.51 6.53-13.19 12.69-20.46 18.37.16-.97.33-1.94.5-2.94.18-1.35.34-2.7.5-4.06.09-.71.18-1.42.28-2.15.49-6.81-2.21-10.6-6.28-15.85l-2-3 1.73.66c12.33 4.23 22.59 2.94 34.27-2.66z"/><path fill="#51eba8" d="m798 222-1 2c-2.39.36-4.72.61-7.12.81-9.79 1.02-18.68 3.79-27.63 7.91C759 234 759 234 756 233c5.83-3.29 11.76-5.74 18.12-7.75.66-.21 1.32-.42 1.99-.64 7.25-2.21 14.33-2.74 21.89-2.61"/></svg>